<?xml version="1.0" standalone="no"?>
<!DOCTYPE svg PUBLIC "-//W3C//DTD SVG 20010904//EN"
 "http://www.w3.org/TR/2001/REC-SVG-20010904/DTD/svg10.dtd">
<svg version="1.0" xmlns="http://www.w3.org/2000/svg"
 width="250.000000pt" height="250.000000pt" viewBox="0 0 250.000000 250.000000"
 preserveAspectRatio="xMidYMid meet">
<metadata>
Created by potrace 1.14, written by Peter Selinger 2001-2017
</metadata>
<g transform="translate(0.000000,250.000000) scale(0.100000,-0.100000)"
fill="#ffffff" stroke="none">
<path d="M1085 2489 c-88 -13 -219 -47 -294 -78 -72 -29 -232 -114 -253 -134
-7 -7 -31 -25 -53 -41 -189 -139 -360 -388 -432 -631 -51 -171 -63 -422 -29
-593 95 -471 444 -844 905 -968 201 -54 440 -54 646 0 434 114 795 487 891
921 20 92 27 152 29 260 3 144 -7 234 -41 355 -60 215 -162 388 -324 550 -185
186 -424 313 -645 345 -22 3 -47 9 -55 12 -25 9 -281 11 -345 2z"/>
</g>
</svg>
