<svg xmlns="http://www.w3.org/2000/svg" width="16" height="16" viewBox="0 0 18 18"><path fill="#69ae4b" d="m18 6.8-5.3-5.3a1 1 0 0 0-1.4 0l-.3.3c-.3.3-.5.8-.5 1.2v1l-.2.5-2.8 2.8a1 1 0 0 1-.5.2H6c-.4 0-1 .2-1.2.5l-.3.3a1 1 0 0 0 0 1.4l1.6 1.6-5 6.4a.5.5 0 0 0 .7.7l6.4-5L9.8 15a1 1 0 0 0 1.4 0l.3-.3c.3-.3.5-.8.5-1.2v-1l.2-.5L15 9.2l.5-.2h1c.4 0 1-.2 1.2-.5l.3-.3a1 1 0 0 0 0-1.4zM4.2 15.3 6.8 12l.7.7-3.3 2.6zM17 7.8a1 1 0 0 1-.5.2h-1c-.4 0-1 .2-1.2.5l-2.8 2.8c-.3.3-.5.8-.5 1.2v1l-.2.5-.3.3L5.2 9l.3-.3.5-.2h1c.4 0 1-.2 1.2-.5L11 5.2c.3-.3.5-.8.5-1.2V3l.2-.5.3-.3 5.3 5.3-.3.3z"/></svg>
