<svg xmlns="http://www.w3.org/2000/svg" viewBox="0 0 1600 800"><path fill="#fff" d="M486 705.8c-109.3-21.8-223.4-32.2-335.3-19.4A704.1 704.1 0 0 0 0 719.8V800h843.8c-115.9-33.2-230.8-68.1-347.6-92.2l-10.2-2z"/><path fill="#fff" d="M1600 0H0v719.8C49 703 99.5 692 150.7 686.3c111.9-12.7 226-2.4 335.3 19.4l10.2 2c116.8 24 231.7 59 347.6 92.2H1600V0z"/><path fill="#fffcef" d="m478.4 581 9.5 2.5C684.1 636 876.6 717 1081.4 760.1c174.2 36.6 349.5 29.2 518.6-10.2V0H0v574.9A618.1 618.1 0 0 1 161.1 544c107.3-6.6 214.6 10.2 317.3 37z"/><path fill="#fffae1" d="M0 0v429.4a557.4 557.4 0 0 1 171.4-27.7c102.8-.8 203.2 22.7 299.3 54.5l8.9 3c183.6 62 365.7 146.1 562.4 192.1 186.7 43.7 376.3 34.4 557.9-12.6V0H0z"/><path fill="#fff9d5" d="M181.8 259.4c98.2 6 191.9 35.2 281.3 72.1l8.3 3.4c171 71.6 342.7 158.5 531.3 207.7 198.8 51.8 403.4 40.8 597.3-14.8V0H0v283.2a483.5 483.5 0 0 1 181.8-23.8z"/><path fill="#fffae1" d="M1600 0H0v136.3a430.3 430.3 0 0 1 192.2-19.2c93.6 12.1 180.5 47.7 263.3 89.6l7.7 3.9c158.4 81.1 319.7 170.9 500.3 223.2 210.5 61 430.8 49 636.6-16.6V0z"/><path fill="#fffbe9" d="M454.9 86.3C600.7 177 751.6 269.3 924.1 325c208.6 67.4 431.3 60.8 637.9-5.3 12.8-4.1 25.4-8.4 38.1-12.9V0h-1312c56 21.3 108.7 50.6 159.7 82l7.1 4.3z"/><path fill="#fffdf0" d="M1600 0H498c118.1 85.8 243.5 164.5 386.8 216.2a985 985 0 0 0 595 21.1 977.9 977.9 0 0 0 120.3-41.7V0z"/><path fill="#fffef8" d="M1397.5 154.8A860.9 860.9 0 0 0 1600 81.5V0H643.4a1129.5 1129.5 0 0 0 202.1 107.4c174.9 70.7 368.7 88.7 552 47.4z"/><path fill="#fff" d="M1315.3 72.4A733.9 733.9 0 0 0 1532.1 0h-723c157.7 71 335.6 101 506.2 72.4z"/></svg>
