<svg xmlns="http://www.w3.org/2000/svg" width="193" height="193"><path fill="none" d="M-1-1H801V601H-1z"/><path d="M117.2 115C110.5 80.6 79 65 46.8 71c3.7-19.2 21.8-35 33.5-49.7 1.7-2 2.6-5.7 0-7.7-6.2-4.8-12-6.3-17.3-5.5-.3-1-1.3-1.8-2.6-1.4-18.9 6-31 26.2-39.3 42.9a149.2 149.2 0 0 0-15 72.1c2 38.7 36.6 75.5 77.7 64.8 30-7.8 38.5-45 33.4-71.5zm-77 31 .6-2.3c.6.7 1 1.5 1.5 2.4l-2 .2v-.3zm-8.6-90.8c.5.2 1 .4 1.6.4a129 129 0 0 0-4.5 9.9c-.5-.2-1-.3-1.6-.3 1.4-3.4 2.9-6.7 4.5-10zm-4.1 98.2c1.2 1.3 2.6 2.6 4 3.8l-.5.9c-1.3-1.5-2.5-3-3.5-4.7zm37-.2a22.3 22.3 0 0 1-4.4-10.5c2.7 3.7 4.9 7.8 7 12-1-.4-1.8-.9-2.6-1.5z" fill="#ffd046" transform="rotate(13 102.5 97.5)"/><path d="M123.4 64.9c3.7-14.7 13.6-24.9 20.8-38.1 1.2-2.1.7-5.5-1.7-6.6-4.5-2.1-8.6-4.4-13-6.1-1.4-3-5.5-4.8-8.6-2-5.6 5-11.6 11.4-16.5 18.6A58.8 58.8 0 0 0 92 57.3c-.2 1 0 2.1.4 3.2l-.7 1.2c-1.1 2-.5 4.7 1.6 5.9A64.6 64.6 0 0 1 127 128a24 24 0 0 0-1.1 11c-2 12-6.5 24-13.2 35.1-1.5 2.5-1 4.9.5 6.5.4 1.2 1.4 2.3 3.2 2.7 39 8.8 78.1-9.9 82.3-52.3 4-39.5-37.2-72.8-75.3-66.2zm14.9 109.8c0-.2.2-.3.3-.4 3.6-.3 6.9-1.3 9.7-3v.5l.5 1c-3.4.8-7 1.5-10.5 1.9zm27.6-74.3-1 2-.1-.6c0-1.4.3-2.8.7-4.3l.6 2.6-.2.3zm18.6 42.6v-2.8l1.6-3.2c-.4 2-1 4-1.6 6z" fill="#ffe352" transform="rotate(13 102.5 97.5)"/></svg>
