<?xml version="1.0" standalone="no"?>
<!DOCTYPE svg PUBLIC "-//W3C//DTD SVG 20010904//EN"
 "http://www.w3.org/TR/2001/REC-SVG-20010904/DTD/svg10.dtd">
<svg version="1.0" xmlns="http://www.w3.org/2000/svg"
 width="250.000000pt" height="250.000000pt" viewBox="0 0 250.000000 250.000000"
 preserveAspectRatio="xMidYMid meet">
<metadata>
Created by potrace 1.14, written by Peter Selinger 2001-2017
</metadata>
<g transform="translate(0.000000,250.000000) scale(0.100000,-0.100000)"
fill="#000000" stroke="none">
<path d="M1094 2395 c-16 -12 -16 -14 -3 -15 9 0 22 7 29 15 16 19 0 19 -26 0z"/>
<path d="M994 2372 c-32 -16 -84 -40 -114 -54 -30 -14 -74 -43 -98 -63 -52
-46 -122 -146 -122 -176 0 -13 -10 -51 -21 -85 l-21 -63 -72 1 c-39 0 -91 -3
-115 -7 -38 -6 -43 -5 -38 9 4 9 2 16 -3 16 -6 0 -10 5 -10 11 0 6 -7 17 -15
26 -29 28 -14 48 40 53 29 3 59 14 73 25 12 11 35 23 50 26 22 4 13 8 -47 23
-91 21 -122 15 -160 -31 -30 -36 -32 -53 -6 -53 11 0 11 -6 -2 -31 -12 -25
-13 -36 -4 -50 16 -27 14 -32 -14 -27 -13 3 -23 2 -22 -2 1 -5 -2 -7 -8 -7 -5
1 -8 14 -6 29 1 14 -2 29 -7 32 -12 7 -86 -98 -116 -166 l-24 -53 6 -521 c2
-287 8 -528 13 -535 6 -10 10 -10 23 0 14 12 16 45 16 225 0 236 25 692 38
709 5 7 9 46 10 87 2 81 9 113 22 105 5 -3 11 5 13 17 3 18 5 17 6 -7 1 -22 4
-26 10 -16 6 9 8 -7 4 -45 -3 -39 0 -70 9 -92 14 -32 14 -32 26 -10 18 36 36
82 37 98 1 8 3 20 4 26 0 6 8 11 16 11 18 0 20 -14 3 -19 -6 -2 -8 -10 -4 -16
11 -18 26 -14 26 7 0 23 13 33 32 26 8 -3 13 -18 12 -35 -2 -34 22 -62 36 -41
4 8 14 11 21 9 8 -3 21 -2 30 3 9 5 42 11 74 15 53 5 59 4 85 -21 27 -26 42
-69 44 -130 2 -44 33 -47 39 -3 2 20 4 10 5 -27 1 -33 5 -84 8 -112 5 -37 3
-53 -5 -53 -6 0 -11 12 -11 26 0 14 -4 23 -10 19 -5 -3 -10 -47 -10 -96 0 -57
-5 -103 -15 -126 -8 -19 -15 -56 -15 -82 0 -25 -7 -54 -15 -65 -13 -18 -15
-17 -42 12 -29 32 -78 56 -94 46 -10 -6 -12 -87 -3 -121 10 -35 119 -38 119
-2 0 5 5 9 10 10 6 0 14 -19 19 -43 5 -24 10 -44 11 -46 2 -2 24 10 51 26 46
26 51 34 88 126 29 72 42 94 48 82 6 -10 4 -26 -5 -43 -28 -53 -29 -105 -7
-222 20 -101 35 -154 82 -282 20 -53 36 -71 57 -59 17 9 73 6 90 -4 5 -3 12 1
15 10 3 9 12 14 19 11 6 -2 25 2 40 10 16 8 31 12 35 9 3 -3 10 -2 16 3 23 18
60 20 77 5 15 -14 20 -12 55 21 30 28 45 34 64 30 50 -11 54 -10 66 25 12 36
15 45 59 207 31 115 34 246 4 227 -5 -3 -9 13 -9 35 0 23 -4 41 -10 41 -5 0
-10 -4 -10 -10 0 -5 -9 -10 -20 -10 -27 0 -16 21 26 48 l36 23 -3 -29 c-3 -20
10 -50 44 -104 51 -83 64 -90 161 -102 27 -3 72 -19 101 -36 48 -27 58 -29
114 -24 57 6 61 8 54 28 -4 12 -8 55 -8 96 -1 124 -4 155 -18 173 -11 15 -15
16 -31 4 -18 -13 -18 -15 3 -43 l22 -30 -24 -43 c-50 -96 -87 -75 -87 48 1 51
5 82 15 95 8 11 15 35 15 53 0 38 -1 38 46 18 45 -19 57 -11 51 29 -3 18 1 37
9 46 10 12 11 30 3 85 -5 39 -10 80 -11 92 -3 28 -56 42 -94 24 -14 -6 -27
-11 -28 -11 -2 0 -7 41 -11 90 -8 104 -4 114 59 131 50 14 304 13 341 -1 36
-14 43 10 15 49 l-21 31 -235 2 -236 3 -17 50 c-10 28 -23 49 -30 47 -6 -1
-11 2 -11 8 0 5 -7 10 -16 10 -8 0 -20 14 -25 30 -6 17 -17 30 -24 30 -8 0
-15 12 -17 28 -2 15 -6 25 -9 22 -12 -10 -40 23 -37 44 2 13 -2 20 -10 18 -8
-1 -11 2 -8 7 10 15 -17 29 -82 41 -47 10 -66 10 -75 1 -13 -13 -37 -15 -37
-3 0 12 84 32 108 25 31 -8 29 20 -3 37 -21 11 -32 11 -59 2 -44 -16 -83 -15
-93 2 -4 8 -31 20 -58 26 -28 7 -63 16 -80 20 -36 10 -142 4 -179 -10 -45 -17
-53 -11 -21 15 40 32 21 31 -51 -3z m371 -62 c3 -5 2 -10 -4 -10 -5 0 -13 5
-16 10 -3 6 -2 10 4 10 5 0 13 -4 16 -10z m132 -66 c-3 -3 -12 -4 -19 -1 -8 3
-5 6 6 6 11 1 17 -2 13 -5z m-247 -134 c0 -6 11 -8 26 -4 25 6 26 5 22 -25 -5
-34 5 -41 21 -14 8 15 22 17 93 15 45 -2 90 -5 99 -8 22 -6 43 -49 34 -71 -13
-31 -12 -77 3 -100 9 -14 10 -23 3 -28 -6 -3 -11 2 -11 11 0 16 -1 16 -14 -1
-13 -18 -18 -18 -51 -7 -23 9 -57 12 -98 7 -125 -12 -190 -39 -185 -74 2 -9
-3 -16 -9 -15 -7 1 -23 2 -35 3 -17 1 -20 3 -9 10 24 15 -27 37 -114 50 -96
14 -135 28 -135 49 0 21 76 92 119 109 20 9 49 24 64 35 15 11 37 18 47 15 12
-3 20 0 20 8 0 15 48 35 103 44 4 0 7 -4 7 -9z m140 -270 c0 -5 -8 -10 -17
-10 -15 0 -16 2 -3 10 19 12 20 12 20 0z m-1087 -30 c-3 -12 -8 -19 -11 -16
-5 6 5 36 12 36 2 0 2 -9 -1 -20z m1107 -1 c-14 -4 -40 -7 -58 -8 -26 -1 -30
2 -21 12 7 7 29 10 58 8 39 -4 42 -5 21 -12z m-415 -9 c8 -13 -45 -13 -65 0
-11 7 -6 10 22 10 20 0 40 -4 43 -10z m-165 -10 c0 -5 -4 -10 -10 -10 -5 0
-10 5 -10 10 0 6 5 10 10 10 6 0 10 -4 10 -10z m60 -20 c0 -5 -4 -10 -10 -10
-5 0 -10 5 -10 10 0 6 5 10 10 10 6 0 10 -4 10 -10z m306 -20 c0 -14 4 -35 8
-47 6 -18 11 -21 25 -13 10 5 21 6 25 3 3 -3 6 0 6 8 0 8 -12 27 -26 42 -14
16 -23 31 -20 35 4 3 13 -4 22 -16 8 -12 21 -22 29 -22 8 0 20 -8 27 -18 32
-44 147 -55 175 -16 11 15 19 16 56 8 23 -6 55 -7 70 -3 20 5 29 3 36 -9 14
-27 41 -128 41 -154 0 -13 4 -18 8 -12 10 14 42 26 42 15 0 -5 -6 -12 -12 -14
-10 -4 -10 -7 0 -15 9 -6 11 -20 7 -45 -8 -39 -19 -53 -50 -58 -10 -2 -22 -15
-26 -29 -4 -14 -5 17 -2 67 5 109 0 123 -33 92 -13 -12 -24 -26 -24 -30 0 -11
-77 -89 -89 -89 -6 0 -11 -5 -11 -11 0 -11 -25 -39 -35 -39 -3 0 -3 5 1 12 4
7 3 8 -4 4 -7 -4 -12 -14 -12 -22 0 -19 -7 -18 -37 6 -25 20 -73 27 -87 13 -3
-4 -49 -6 -101 -5 -51 1 -104 -2 -117 -7 -28 -10 -48 -4 -48 15 0 12 -5 12
-34 0 -33 -14 -35 -13 -95 31 -33 25 -63 54 -66 64 -4 10 -10 19 -15 19 -5 0
-2 12 6 28 16 31 18 52 5 52 -12 0 -51 76 -51 101 0 11 7 22 16 26 15 5 63
-13 75 -29 3 -5 27 -12 55 -17 39 -8 56 -6 83 7 l34 16 -23 18 c-25 20 -19 24
11 8 15 -8 21 -7 25 5 9 23 22 9 16 -20 -3 -20 0 -25 16 -25 24 0 45 31 36 54
-11 28 4 48 33 44 22 -2 28 -8 29 -28z m157 -27 c-7 -2 -21 -2 -30 0 -10 3 -4
5 12 5 17 0 24 -2 18 -5z m655 -245 c7 -7 12 -22 12 -34 0 -51 -72 -61 -78
-11 -6 47 36 75 66 45z m-1203 -138 l5 -35 -14 30 c-18 35 -21 64 -6 49 5 -5
12 -25 15 -44z m433 -32 c-6 -18 -88 -28 -118 -15 -23 10 -21 11 25 17 84 11
97 11 93 -2z m137 2 c3 -5 0 -19 -7 -31 -10 -17 -10 -23 0 -26 31 -11 -4 -83
-40 -83 -10 0 -18 -4 -18 -9 0 -18 -62 -30 -128 -25 -98 8 -112 12 -112 33 0
21 35 31 112 31 67 0 102 20 128 75 21 43 50 59 65 35z m-335 -41 c12 -22 2
-25 -25 -6 -10 8 -15 19 -11 26 9 14 22 7 36 -20z m-233 -47 c2 -23 -2 -32
-12 -32 -11 0 -15 11 -15 36 0 45 23 41 27 -4z"/>
<path d="M1076 1528 c-31 -16 -37 -24 -32 -41 3 -12 6 -25 6 -28 0 -15 81 -18
125 -4 26 7 61 11 77 8 28 -6 57 15 58 43 0 14 -95 37 -125 30 -13 -3 -34 -2
-47 3 -17 6 -34 3 -62 -11z"/>
<path d="M1335 1222 c-8 -23 0 -24 18 -4 14 15 15 19 2 19 -8 0 -17 -7 -20
-15z"/>
<path d="M440 1950 c0 -5 5 -10 10 -10 6 0 10 5 10 10 0 6 -4 10 -10 10 -5 0
-10 -4 -10 -10z"/>
<path d="M2299 1724 c-14 -23 -14 -30 -1 -71 11 -34 12 -53 4 -79 -8 -27 -7
-40 7 -67 l17 -34 13 42 c7 23 9 53 6 66 -3 14 -2 44 4 68 10 46 -2 101 -23
101 -6 0 -18 -12 -27 -26z"/>
<path d="M2321 1297 c-1 -138 -23 -221 -63 -238 -16 -6 -28 -14 -28 -18 0 -3
14 -24 30 -45 33 -44 38 -80 14 -94 -13 -7 -2 -19 57 -60 l74 -52 14 33 c13
31 16 58 12 122 -1 17 1 47 5 68 7 43 -7 67 -36 60 -33 -9 -48 33 -55 161 -10
165 -23 198 -24 63z"/>
<path d="M354 973 c-52 -7 -69 -35 -66 -107 4 -107 11 -112 104 -75 34 13 67
36 90 63 36 41 36 42 22 73 -23 47 -57 58 -150 46z"/>
<path d="M565 910 c-3 -5 1 -10 9 -10 8 0 18 5 21 10 3 6 -1 10 -9 10 -8 0
-18 -4 -21 -10z"/>
<path d="M1495 570 c-3 -11 -10 -20 -14 -20 -13 0 -71 -62 -71 -77 0 -8 -7
-21 -15 -29 -17 -18 -22 -144 -5 -144 6 0 10 12 10 28 0 32 9 46 33 55 10 4
17 2 17 -6 0 -7 9 -1 19 12 10 13 23 21 30 17 6 -4 18 0 27 8 21 22 30 20 39
-6 6 -20 8 -18 16 17 23 93 27 102 22 45 -5 -64 7 -91 31 -71 9 7 24 10 33 6
24 -8 28 -4 24 23 -1 13 2 29 8 36 8 9 2 17 -22 31 -18 10 -43 30 -57 44 -48
50 -114 66 -125 31z"/>
<path d="M880 527 c-19 -6 -37 -13 -40 -16 -3 -3 -14 -11 -25 -17 -11 -6 -37
-33 -57 -60 -30 -39 -35 -51 -25 -59 7 -5 16 -17 19 -26 7 -17 64 -19 100 -4
13 5 20 1 26 -16 8 -22 9 -21 15 11 7 35 -1 81 -22 133 -6 15 -7 27 -2 27 4 0
20 -37 34 -82 l26 -83 -6 58 c-4 47 -3 56 9 52 7 -3 20 -20 27 -38 l13 -32 8
25 7 25 19 -32 c21 -36 34 -42 34 -16 0 10 10 3 28 -20 30 -40 53 -51 29 -14
-8 12 -18 42 -22 66 -5 31 -13 45 -27 49 -13 3 -17 10 -13 21 5 13 4 14 -6 4
-22 -22 -43 -14 -67 22 -24 38 -28 39 -82 22z m-21 -82 c0 -5 -4 -3 -9 5 -5 8
-9 22 -9 30 0 16 17 -16 18 -35z"/>
<path d="M1357 450 c3 -11 9 -17 14 -14 14 8 10 34 -5 34 -9 0 -12 -7 -9 -20z"/>
<path d="M1720 425 c0 -29 4 -45 13 -45 15 0 46 20 31 20 -21 0 -23 38 -3 43
24 6 29 0 29 -40 0 -18 5 -33 11 -33 8 0 9 12 4 37 -7 40 -20 54 -41 46 -6 -2
-15 0 -19 6 -14 24 -25 9 -25 -34z"/>
<path d="M1320 430 c0 -11 2 -20 4 -20 2 0 6 9 9 20 3 11 1 20 -4 20 -5 0 -9
-9 -9 -20z"/>
<path d="M1103 382 c5 -38 33 -89 44 -78 8 8 -20 96 -35 108 -13 12 -15 8 -9
-30z"/>
<path d="M1352 386 c-7 -15 -12 -41 -11 -59 1 -28 2 -26 15 18 16 58 14 79 -4
41z"/>
<path d="M1182 349 c6 -16 12 -29 13 -27 6 6 -8 58 -16 58 -4 0 -3 -14 3 -31z"/>
<path d="M700 333 c0 -28 3 -34 10 -23 13 20 13 60 0 60 -5 0 -10 -17 -10 -37z"/>
<path d="M1236 336 c3 -9 11 -16 16 -16 13 0 5 23 -10 28 -7 2 -10 -2 -6 -12z"/>
<path d="M1172 102 c-14 -30 -16 -92 -3 -92 7 0 23 109 17 117 -1 1 -7 -10
-14 -25z"/>
</g>
</svg>
