<svg style="height:100%;width:100%" viewBox="0 0 618 354" xmlns="http://www.w3.org/2000/svg"><defs><clipPath id="a"><path d="M0 0H618V354H0z"/></clipPath><mask id="b" mask-type="alpha"><path d="M88-5412.5s-398-45-445 152c-24.5 102.7 172 105 172 105s277 14 292.5-146c6.9-70.8-83.5-71-83.5-71" fill-opacity="0" stroke="#1a1a1a" stroke-width="20" transform="translate(432 5463.5)" display="block"/></mask></defs><g display="block" mask="url(#b)" clip-path="url(#a)"><path d="m-84.6-101.6 2.3-1-.3.2c.8-.4 1.6-.7 2.5-.8h-.3c4-1.3 5.2-1.4 8.7-2.5 1.5-.7 3.1-1.3 4.8-1.8l7.5-2h-.3c3.2-1.1 6.4-2.2 9.6-3l1.9-.8 4.3-1 9.2-2c2.4-.6 3.2-.5 6.2-1.2l7-1.5 4.5-.8h-.3l7.2-1.2 3.6-.7 3.6-.5 14.4-2.4c3.6-.5 5.8-.5 10-1 3.8-.7 7-1.3 12-1.9l8.6-.5 8.2-.5a30 30 0 0 0 4.9-.6 92.6 92.6 0 0 1 11.4-.8c2.5-.2 4.2-.5 6.6-.6 3-.2 6.7-.4 9.6-.4l11.5-.5 5.5-.1 4.4.3c1.2.3 5.1.3 8.2.4h6.6c.6 0 2.4 0 3.8.2h4.6l5.9.3 10.3-.2 4.2-.1c1.4 0 3 0 5.3.3l5.8.1 5.7.1 10 .3 7.5.7 12 1c3.1-.1 6.3 0 9.4.3l2.8.2 5.1-.7c-4-.6-5.5-1.1-10.1-1.8-4.2-.6-8.2-1.1-14.8-1.7l-4-.3-3-.5-8.5-.4c-7.4-.2-15.3-.5-21.5-.5-2.3 0-2.6 0-6.9-.4-3.4-.2-5.1-.4-7-.7l-9.1-.1-6.5-.4h-8c-6.3.2-11.4.1-15-.1 0-.2.8-.3-.1-.4-3.5 0-5.2-.5-9.9-.4l-12.1.8c-2.6.3-5.5.5-8.9.6-2 0-3.9.2-5.8.5-3.8.6-8.3 1-13.8 1.3-2 0-3.9.2-5.8.5h1-.7c-2.3.2-4.3.6-6.8.7l-2.9.3-15.2 1.7-1.5.2c-3.9.8-7.9 1.5-13.4 2.2l-6 .9-3.2.5-3.2.6-2.5.7 1.2-.2h-.9c-2.7.6-5.3 1.2-8.3 1.7l-4 .8-3.4.8-3.6.8c-2.9.7-4.3 1.3-7.6 2-2.3.2-4.6.6-6.7 1.3l-3.7.8-2.2.5-13 4-5.1 1.6-9.2 3-5.2 1.4c-3 .8-5.8 1.8-8.7 3l-5.5 2c-2.5.8-5 1.8-7.4 2.8l-9.3 4-9 4.4-5.8 2.9-4.2 2.3a50.1 50.1 0 0 0-7.8 4l-3.4 2.1-1.8 1.1c-1.4.8-1.8.9-4.1 2.4l-2 1.3c-2.8 2-6.2 4.5-10.5 7.4l-3.6 2.4-3.3 2.7-6.2 5.2-9.5 8.2c-2 1.6-6.1 5.6-8.7 7.9l-4.4 5-2.4 2.7-2.5 2.8a47 47 0 0 0-3.6 4.2l-1 1.4-1.1 1.5-1.8 2.6c-.6 1.1-1.6 2.5-2.7 4l-3.2 5.4-1 1.4-1 1.2-2.2 3.6-1.2 2.1-1.2 2.6-1.2 2.9a103 103 0 0 0-4.5 9.8c-1.2 3.6-2.4 7-3.2 10.2l-.3 1.6-.7 4-.6 3c-.7 6.8-.2 13.8 1.4 20.5a60.9 60.9 0 0 0 8.4 18.1l1.8 2.5 1.8 2.3 1.6 2A56.7 56.7 0 0 0-208 90.4l3.5 2.6c1.2 1 2.5 1.8 4 2.5l1 .5 3.8 2.3 3.8 2.2 9.8 4.8c4 2 7.4 3.7 12.1 5.6a342 342 0 0 0 37.3 12.6l6.3 1.4c3.8.9 7.6 1.6 11.5 2.3a42.5 42.5 0 0 1 7.1 1.6l10 1.6c4 .2 8.2.5 14.6 1.1h-.4l13.4 1.4-5.2-.3c3 .5 6 1 9 1.3l5.3.2 13 1.3c4 .5 8.2.7 12.3.4h1.7l6.6.2h3c4-.2 9.5-.2 13.6-.5l7.3-.3 8.5-.5.8-.2 4-.4c1.1-.2 2.3-.2 3.4 0 2.6 0 5.1 0 7.6-.4l8.5-.8c2.2-.1 4.3-.4 6.4-.9 2-.3 4-.6 6-.7 2.2-.6 6.6-1 11.2-2l8.5-1.4 5.7-1.1 5.3-1.3L78 124l5.7-1.6c4.3-1 7.4-1.6 10.7-2.6l6.3-1.9 3.1-1 3-1 8.7-3.1 8.6-3.3 3.5-1.4c1-.5 2-.8 2.6-1a69.6 69.6 0 0 0 13.4-6.3l4-2.2c1.1-.7 1.5-1.1 4.3-2.6 2.6-1.4 5.8-2.8 9-4.7l6.3-4.2c2-1.6 4.3-3.1 6.8-4.8 1.2-.7 2.1-1.5 3.1-2.3l3-2.3 2.9-2.2 2.8-2.3a56.6 56.6 0 0 0 8.7-8l3.2-3 3-3.2 2.7-3 3.4-3.8c1.2-1.4 2.2-2.7 3.1-4.2 2.2-2.5 4.1-5.1 6-7.9l2.4-4 2.2-4c2.1-3.5 2.2-4.4 4-8l2.1-3.9 2.5-5.2c1-2.5 1.8-4.6 2.4-6.7.7-2 1.1-4 1.8-6.2.4-1.3.8-2.3 1.1-3.7a83 83 0 0 0 1.7-8.5l.4-4.3c.2-1.4.2-2.9.2-4.3v-4l-.3-4.5a41.3 41.3 0 0 0-1.1-8.5l-.9-4.1c-.3-1.3-.7-2.6-1.2-3.8a54 54 0 0 0-9.8-14.2l-2.7-2.6c-1-1-2-1.8-3.2-2.6l-2.2-1.7a65.5 65.5 0 0 0-15.4-8.5l-7.6-3-7-2.8-4.2-1.7-2.7-.9c-3.3-1.1-6.7-2-10.1-2.8l-5.2-1.2-5.6-1.5-3.2-.1c2.2.7-.6.3-1.9.2 2.1.7 4.5 1.3 7.6 2l2.2.6 6.6 1.3c2.4.7 4.5 1.5 6.5 2l7.6 2.5c4.9 1.8 8.7 3.4 13.9 5.7l2.1 1.1-2.1-.6 2.9 1.6c3.2 1.8 6.3 3.6 10.5 6.3 6.7 4.4 13 9.8 17.3 16.5a38 38 0 0 1 3.5 6.9l.5 2 .4 1.5.5 2.4 1 5.2v1.5l-.1 1.2-.1 2.4-.1 3.2-.2 2.4c0 .9 0 1.9-.2 3l-.3 4.5c0 1.5-.3 3-.4 4.2l-.4 2.6-.6 2.8-.6 2.8-.7 2.6-.7 3.1a46.3 46.3 0 0 1-4.7 12.4l-1 1.5-2.3 4.5c-.7 1.4-1.4 2.7-2.3 4-1.5 2.4-3 4.9-4.6 7.1l-2 3.1-1 1.6L210 42l-2.5 3.3-1.3 1.7-1.4 1.6-4.7 5.5-5.3 5.5-.2.4v.3c-3.8 3.4-5.6 5.2-7.1 6.7l-5 4.8-.7.6-6.4 4.9-7.2 5.2c-3.1 2-6.6 3.8-10 5.7l-2 1c-2.7 1.6-5 2.9-7.2 4l-3 1.6-3.1 1.4-1.5.7c-1.1.8-3 1.8-4.8 2.8l-5.6 2.8-2.7 1.3-8.4 3.3c-2.8 1.1-5.5 2.2-8.3 3l-5.6 2.3-3.8 1.2-3.7 1a121 121 0 0 0-7.5 2.3c-1.3.5.5.3-3.3 1.3l-9.8 2-6.4 1.3-9 2.2-12.7 2c-5.1.7-8.8 1.4-12.3 2l-4.5.4-4 .3-10 1c-7.2.4-16 .8-25 1h-6c-3 0-2.7-.2-5-.3a32 32 0 0 1-5.7 0c-2.1.1-4 .3-6.4.3-6.6 0-11.8.2-18.6 0l-12.5-.6-3.4-.5c-3.3-.4-7-.9-11.1-1.2-4.7-.4-7.7-1-12-1.6-3.3-.4-1.6-.5-4.2-.9l-2.1-.3-6-.6c-5.9-1.2-12.7-2.2-18.8-3.5-2.9-1-5.9-1.8-9-2.3l-5-1.1-2.4-.8.3.1-3-.8c-5.5-1.4-10.8-3-16.2-4.9l-14-4.9c-3.3-1-7.6-2.7-11.6-4.5-2.2-1-2.2-1.2-3.9-2l-8.9-4.4 1.3 1.1-4.9-2.8-4.4-2.8c-3-2.2-5-4-7-5.6-1.9-1.6-3.8-3.3-6.4-5.8a49.8 49.8 0 0 1-6.8-8l-1.6-2.2-2-3-1-1.6a46.3 46.3 0 0 1-4.8-11.3c-.4-1-.6-2-.8-3l-.7-2.4.4 2.5c.2.9.4 1.6.2 1.3a41.6 41.6 0 0 1-1.5-8.8V40l-.2-2.1.2-1.7.3-3.2c0-2 .3-4 .6-6 1.4-3.3 1-3.3 3.8-11 .6-1.9 1.5-3.9 2.3-5.6.5-1.4 1.2-2.8 1.9-4.1l1.9-4L-217-5l2.8-4.8 2.6-4.3 4-5.5c1-1.5 2.3-2.8 3.5-4.2l3.7-4.5c2.8-3 4.3-4.3 6.5-6.6.7-.8 1.1-1.4 1.8-2 3.2-3.4 4-4.4 8.3-8.2l1.3-1.1c1.4-1.4 4.2-3.7 5.6-5.2l1.1-1.1 1.3-1 2.4-2 5.2-3.9 4.1-2.8c2.8-2.3 5.8-4.4 9-6.3l2.6-1.7 6.2-3.8a41.6 41.6 0 0 1 4-2l7.8-3.8 3-1.6c3.1-1.8 7-3.7 9.2-5 .8-.6 1.6-1 3-1.7l7-3.3 1.7-.6c3-1 5.8-2.2 8.5-3.6 4.2-1.6 8-3.2 12.5-4.8l4-1.5-.3.2zm-113.6 70.3 1.1-1.2c.3-.2.2 0 0 .2l-2.7 3.1c-1.2 1 .5-.9 1.6-2zm434.3 19v-.3 1l-.1.2v-1zM-221 1.9l.2-.2-.4.8-.1.1.3-.7z" fill="#ffd25f" transform="translate(68 41) translate(237.4 137)"/><path d="m-84.6-101.6 2.3-1-.3.2c.8-.4 1.6-.7 2.5-.8h-.3c4-1.3 5.2-1.4 8.7-2.5 1.5-.7 3.1-1.3 4.8-1.8l7.5-2h-.3c3.2-1.1 6.4-2.2 9.6-3l1.9-.8 4.3-1 9.2-2c2.4-.6 3.2-.5 6.2-1.2l7-1.5 4.5-.8h-.3l7.2-1.2 3.6-.7 3.6-.5 14.4-2.4c3.6-.5 5.8-.5 10-1 3.8-.7 7-1.3 12-1.9l8.6-.5 8.2-.5a30 30 0 0 0 4.9-.6 92.6 92.6 0 0 1 11.4-.8c2.5-.2 4.2-.5 6.6-.6 3-.2 6.7-.4 9.6-.4l11.5-.5 5.5-.1 4.4.3c1.2.3 5.1.3 8.2.4h6.6c.6 0 2.4 0 3.8.2h4.6l5.9.3 10.3-.2 4.2-.1c1.4 0 3 0 5.3.3l5.8.1 5.7.1 10 .3 7.5.7 12 1c3.1-.1 6.3 0 9.4.3l2.8.2 5.1-.7c-4-.6-5.5-1.1-10.1-1.8-4.2-.6-8.2-1.1-14.8-1.7l-4-.3-3-.5-8.5-.4c-7.4-.2-15.3-.5-21.5-.5-2.3 0-2.6 0-6.9-.4-3.4-.2-5.1-.4-7-.7l-9.1-.1-6.5-.4h-8c-6.3.2-11.4.1-15-.1 0-.2.8-.3-.1-.4-3.5 0-5.2-.5-9.9-.4l-12.1.8c-2.6.3-5.5.5-8.9.6-2 0-3.9.2-5.8.5-3.8.6-8.3 1-13.8 1.3-2 0-3.9.2-5.8.5h1-.7c-2.3.2-4.3.6-6.8.7l-2.9.3-15.2 1.7-1.5.2c-3.9.8-7.9 1.5-13.4 2.2l-6 .9-3.2.5-3.2.6-2.5.7 1.2-.2h-.9c-2.7.6-5.3 1.2-8.3 1.7l-4 .8-3.4.8-3.6.8c-2.9.7-4.3 1.3-7.6 2-2.3.2-4.6.6-6.7 1.3l-3.7.8-2.2.5-13 4-5.1 1.6-9.2 3-5.2 1.4c-3 .8-5.8 1.8-8.7 3l-5.5 2c-2.5.8-5 1.8-7.4 2.8l-9.3 4-9 4.4-5.8 2.9-4.2 2.3a50.1 50.1 0 0 0-7.8 4l-3.4 2.1-1.8 1.1c-1.4.8-1.8.9-4.1 2.4l-2 1.3c-2.8 2-6.2 4.5-10.5 7.4l-3.6 2.4-3.3 2.7-6.2 5.2-9.5 8.2c-2 1.6-6.1 5.6-8.7 7.9l-4.4 5-2.4 2.7-2.5 2.8a47 47 0 0 0-3.6 4.2l-1 1.4-1.1 1.5-1.8 2.6c-.6 1.1-1.6 2.5-2.7 4l-3.2 5.4-1 1.4-1 1.2-2.2 3.6-1.2 2.1-1.2 2.6-1.2 2.9a103 103 0 0 0-4.5 9.8c-1.2 3.6-2.4 7-3.2 10.2l-.3 1.6-.7 4-.6 3c-.7 6.8-.2 13.8 1.4 20.5a60.9 60.9 0 0 0 8.4 18.1l1.8 2.5 1.8 2.3 1.6 2A56.7 56.7 0 0 0-208 90.4l3.5 2.6c1.2 1 2.5 1.8 4 2.5l1 .5 3.8 2.3 3.8 2.2 9.8 4.8c4 2 7.4 3.7 12.1 5.6a342 342 0 0 0 37.3 12.6l6.3 1.4c3.8.9 7.6 1.6 11.5 2.3a42.5 42.5 0 0 1 7.1 1.6l10 1.6c4 .2 8.2.5 14.6 1.1h-.4l13.4 1.4-5.2-.3c3 .5 6 1 9 1.3l5.3.2 13 1.3c4 .5 8.2.7 12.3.4h1.7l6.6.2h3c4-.2 9.5-.2 13.6-.5l7.3-.3 8.5-.5.8-.2 4-.4c1.1-.2 2.3-.2 3.4 0 2.6 0 5.1 0 7.6-.4l8.5-.8c2.2-.1 4.3-.4 6.4-.9 2-.3 4-.6 6-.7 2.2-.6 6.6-1 11.2-2l8.5-1.4 5.7-1.1 5.3-1.3L78 124l5.7-1.6c4.3-1 7.4-1.6 10.7-2.6l6.3-1.9 3.1-1 3-1 8.7-3.1 8.6-3.3 3.5-1.4c1-.5 2-.8 2.6-1a69.6 69.6 0 0 0 13.4-6.3l4-2.2c1.1-.7 1.5-1.1 4.3-2.6 2.6-1.4 5.8-2.8 9-4.7l6.3-4.2c2-1.6 4.3-3.1 6.8-4.8 1.2-.7 2.1-1.5 3.1-2.3l3-2.3 2.9-2.2 2.8-2.3a56.6 56.6 0 0 0 8.7-8l3.2-3 3-3.2 2.7-3 3.4-3.8c1.2-1.4 2.2-2.7 3.1-4.2 2.2-2.5 4.1-5.1 6-7.9l2.4-4 2.2-4c2.1-3.5 2.2-4.4 4-8l2.1-3.9 2.5-5.2c1-2.5 1.8-4.6 2.4-6.7.7-2 1.1-4 1.8-6.2.4-1.3.8-2.3 1.1-3.7a83 83 0 0 0 1.7-8.5l.4-4.3c.2-1.4.2-2.9.2-4.3v-4l-.3-4.5a41.3 41.3 0 0 0-1.1-8.5l-.9-4.1c-.3-1.3-.7-2.6-1.2-3.8a54 54 0 0 0-9.8-14.2l-2.7-2.6c-1-1-2-1.8-3.2-2.6l-2.2-1.7a65.5 65.5 0 0 0-15.4-8.5l-7.6-3-7-2.8-4.2-1.7-2.7-.9c-3.3-1.1-6.7-2-10.1-2.8l-5.2-1.2-5.6-1.5-3.2-.1c2.2.7-.6.3-1.9.2 2.1.7 4.5 1.3 7.6 2l2.2.6 6.6 1.3c2.4.7 4.5 1.5 6.5 2l7.6 2.5c4.9 1.8 8.7 3.4 13.9 5.7l2.1 1.1-2.1-.6 2.9 1.6c3.2 1.8 6.3 3.6 10.5 6.3 6.7 4.4 13 9.8 17.3 16.5a38 38 0 0 1 3.5 6.9l.5 2 .4 1.5.5 2.4 1 5.2v1.5l-.1 1.2-.1 2.4-.1 3.2-.2 2.4c0 .9 0 1.9-.2 3l-.3 4.5c0 1.5-.3 3-.4 4.2l-.4 2.6-.6 2.8-.6 2.8-.7 2.6-.7 3.1a46.3 46.3 0 0 1-4.7 12.4l-1 1.5-2.3 4.5c-.7 1.4-1.4 2.7-2.3 4-1.5 2.4-3 4.9-4.6 7.1l-2 3.1-1 1.6L210 42l-2.5 3.3-1.3 1.7-1.4 1.6-4.7 5.5-5.3 5.5-.2.4v.3c-3.8 3.4-5.6 5.2-7.1 6.7l-5 4.8-.7.6-6.4 4.9-7.2 5.2c-3.1 2-6.6 3.8-10 5.7l-2 1c-2.7 1.6-5 2.9-7.2 4l-3 1.6-3.1 1.4-1.5.7c-1.1.8-3 1.8-4.8 2.8l-5.6 2.8-2.7 1.3-8.4 3.3c-2.8 1.1-5.5 2.2-8.3 3l-5.6 2.3-3.8 1.2-3.7 1a121 121 0 0 0-7.5 2.3c-1.3.5.5.3-3.3 1.3l-9.8 2-6.4 1.3-9 2.2-12.7 2c-5.1.7-8.8 1.4-12.3 2l-4.5.4-4 .3-10 1c-7.2.4-16 .8-25 1h-6c-3 0-2.7-.2-5-.3a32 32 0 0 1-5.7 0c-2.1.1-4 .3-6.4.3-6.6 0-11.8.2-18.6 0l-12.5-.6-3.4-.5c-3.3-.4-7-.9-11.1-1.2-4.7-.4-7.7-1-12-1.6-3.3-.4-1.6-.5-4.2-.9l-2.1-.3-6-.6c-5.9-1.2-12.7-2.2-18.8-3.5-2.9-1-5.9-1.8-9-2.3l-5-1.1-2.4-.8.3.1-3-.8c-5.5-1.4-10.8-3-16.2-4.9l-14-4.9c-3.3-1-7.6-2.7-11.6-4.5-2.2-1-2.2-1.2-3.9-2l-8.9-4.4 1.3 1.1-4.9-2.8-4.4-2.8c-3-2.2-5-4-7-5.6-1.9-1.6-3.8-3.3-6.4-5.8a49.8 49.8 0 0 1-6.8-8l-1.6-2.2-2-3-1-1.6a46.3 46.3 0 0 1-4.8-11.3c-.4-1-.6-2-.8-3l-.7-2.4.4 2.5c.2.9.4 1.6.2 1.3a41.6 41.6 0 0 1-1.5-8.8V40l-.2-2.1.2-1.7.3-3.2c0-2 .3-4 .6-6 1.4-3.3 1-3.3 3.8-11 .6-1.9 1.5-3.9 2.3-5.6.5-1.4 1.2-2.8 1.9-4.1l1.9-4L-217-5l2.8-4.8 2.6-4.3 4-5.5c1-1.5 2.3-2.8 3.5-4.2l3.7-4.5c2.8-3 4.3-4.3 6.5-6.6.7-.8 1.1-1.4 1.8-2 3.2-3.4 4-4.4 8.3-8.2l1.3-1.1c1.4-1.4 4.2-3.7 5.6-5.2l1.1-1.1 1.3-1 2.4-2 5.2-3.9 4.1-2.8c2.8-2.3 5.8-4.4 9-6.3l2.6-1.7 6.2-3.8a41.6 41.6 0 0 1 4-2l7.8-3.8 3-1.6c3.1-1.8 7-3.7 9.2-5 .8-.6 1.6-1 3-1.7l7-3.3 1.7-.6c3-1 5.8-2.2 8.5-3.6 4.2-1.6 8-3.2 12.5-4.8l4-1.5-.3.2zm-113.6 70.3 1.1-1.2c.3-.2.2 0 0 .2l-2.7 3.1c-1.2 1 .5-.9 1.6-2zm434.3 19v-.3 1l-.1.2v-1zM-221 1.9l.2-.2-.4.8-.1.1.3-.7z" stroke="#ffd25f" stroke-width="2" fill="none" transform="translate(68 41) translate(237.4 137)"/></g></svg>
